<svg id="Layer_1" data-name="Layer 1" xmlns="http://www.w3.org/2000/svg" xmlns:xlink="http://www.w3.org/1999/xlink" viewBox="0 0 735 852"><defs><style>.cls-1{fill:none;}.cls-2{fill:#009bd7;}.cls-3{fill:#005373;}.cls-4{fill:#007eb4;}.cls-5{opacity:0.94;font-size:167.7px;font-family:MyriadPro-Semibold, Myriad Pro;letter-spacing:0.01em;}.cls-13,.cls-5{fill:#fff;}.cls-6,.cls-7,.cls-8{font-weight:700;}.cls-7{letter-spacing:0.01em;}.cls-8{letter-spacing:0.06em;}.cls-10,.cls-9{font-family:MyriadPro-Regular, Myriad Pro;}.cls-9{letter-spacing:-0.03em;}.cls-10{letter-spacing:-0.03em;}.cls-11{isolation:isolate;}.cls-12{clip-path:url(#clip-path);}</style><clipPath id="clip-path"><polygon class="cls-1" points="390.23 807.42 390.19 789.96 543.47 701.46 543.52 718.92 390.23 807.42"/></clipPath></defs><title> </title><polygon class="cls-2" points="734.91 213.75 734.91 636.9 367.5 849.09 367.5 425.33 734.91 213.75"/><polygon class="cls-3" points="0.09 213.75 0.09 636.9 367.5 849.09 367.5 425.33 0.09 213.75"/><polygon class="cls-4" points="0.09 213.75 367.5 2.1 734.91 213.75 367.5 425.33 0.09 213.75"/><path d="M556.56,111v72.13L367.5,74,63.86,250V601L367.4,776.68,672,600.59V177.44Zm.69,424.15L367,645,176.64,535.71V315L367.5,205.71,557.28,315Z"/><text class="cls-5" transform="translate(63.47 487.54) scale(1 1.06)"><tspan class="cls-6">d</tspan><tspan class="cls-7" x="99.61" y="0">e</tspan><tspan class="cls-8" x="187.83" y="0">v</tspan><tspan class="cls-9" x="283.58" y="0">t</tspan><tspan class="cls-10" x="334.73" y="0">ools</tspan></text><g class="cls-11"><g class="cls-12"><path class="cls-13" d="M405,786.88l-1.83,1.06-1.44,6.72c-.33,1.57-.61,3-.77,4.25l-.06,0a34,34,0,0,0-.92-3.3l-1.59-5-1.56.9-1.65,6.92c-.33,1.48-.66,2.93-.89,4.25l-.06,0c-.19-1.1-.47-2.15-.77-3.29l-1.36-5.18-1.9,1.09,3.1,9.94,1.69-1,1.63-6.52c.35-1.46.67-2.86.91-4.41l0,0a28.26,28.26,0,0,0,.92,3.33l1.57,4.69,1.69-1L405,786.88"/><path class="cls-13" d="M420.78,777.78l-1.84,1.06-1.43,6.72c-.33,1.57-.61,3-.77,4.25l-.06,0c-.24-1.05-.54-2.12-.92-3.3l-1.6-4.95-1.56.9L411,789.42c-.33,1.48-.66,2.93-.9,4.25l-.06,0c-.19-1.1-.47-2.16-.77-3.29l-1.36-5.18-1.9,1.09,3.11,9.94,1.69-1,1.63-6.52c.35-1.46.66-2.85.91-4.41l0,0a29.73,29.73,0,0,0,.92,3.33l1.58,4.69,1.69-1,3.25-13.61"/><path class="cls-13" d="M436.55,768.67l-1.83,1.06-1.44,6.72c-.33,1.57-.61,3-.77,4.25l-.06,0a34,34,0,0,0-.92-3.3l-1.59-5-1.56.9-1.64,6.92c-.33,1.48-.67,2.93-.9,4.25l-.06,0c-.19-1.1-.47-2.15-.77-3.29l-1.36-5.18-1.9,1.09,3.11,9.94,1.69-1,1.63-6.52c.35-1.46.67-2.86.91-4.41l0,0a29.77,29.77,0,0,0,.92,3.33l1.57,4.69,1.69-1,3.25-13.61"/><path class="cls-13" d="M438.43,776.54a2.71,2.71,0,0,0-1.26,2.26c0,.87.51,1.23,1.22.82h0a2.67,2.67,0,0,0,1.26-2.26c0-.9-.51-1.23-1.25-.81"/><path class="cls-13" d="M446.45,762.68a6.87,6.87,0,0,0-2.81,4.2l-.08,0-.07-2.26-1.62.94c.06,1.05.09,2.23.09,3.61l0,8.06,1.83-1.06,0-6.24a7.58,7.58,0,0,1,.08-1,5.82,5.82,0,0,1,2.48-4.17,3.49,3.49,0,0,1,.63-.29v-2a2.46,2.46,0,0,0-.53.23"/><path class="cls-13" d="M451.94,759.52a6.83,6.83,0,0,0-3.51,5.48c0,1.41.88,2.07,2.71,1.76,1.37-.2,1.9,0,1.9,1.06a3.52,3.52,0,0,1-2,2.89,4,4,0,0,1-2.45.56l-.46,1.89a5.09,5.09,0,0,0,2.87-.83,7,7,0,0,0,3.81-5.74c0-1.75-.91-2.24-2.69-2-1.33.19-1.94.1-1.94-.87a3.21,3.21,0,0,1,1.7-2.58,3.28,3.28,0,0,1,2.09-.52l.46-1.82a4.52,4.52,0,0,0-2.5.72"/><path class="cls-13" d="M459.41,752.66l-1.81,1.7v2.16l-1.58.91V759l1.58-.91,0,6.39c0,1.39.2,2.32.72,2.64s1.14.27,2-.23a7.52,7.52,0,0,0,1.64-1.26l-.09-1.55a5.54,5.54,0,0,1-1.07.77c-1,.6-1.39,0-1.4-1.48l0-6.32,2.66-1.53v-1.62l-2.66,1.53v-2.81"/><path class="cls-13" d="M472.7,747.8l-1.86,1.07,0,7.19a4.66,4.66,0,0,1-.16,1.19,6,6,0,0,1-2.44,3.35c-1.69,1-2.28-.19-2.29-2.42l0-6.49-1.85,1.07,0,6.85c0,4.12,1.93,4,3.53,3.1A8.42,8.42,0,0,0,471,758.6l0,0,.11,1.85,1.65-1c-.07-.88-.09-1.93-.09-3.14l0-8.52"/><path class="cls-13" d="M480,753.89c-2,1.15-3-.22-3-2.6,0-2.59,1.12-5.18,3-6.29,1.39-.8,2.4-.27,2.68.93a3.6,3.6,0,0,1,.09.85v2a4.89,4.89,0,0,1-.08,1,6.2,6.2,0,0,1-2.71,4.11m4.62-18.43-1.86,1.07,0,7,0,0c-.46-.68-1.52-.92-3.08,0-2.49,1.44-4.59,5.05-4.56,8.95,0,3.56,1.91,4.86,4.38,3.44a8.22,8.22,0,0,0,3.47-4.31l0,0,.09,2,1.67-1c-.07-.76-.09-1.93-.09-3l0-14.17"/><path class="cls-13" d="M489.52,738.09l-1.85,1.07,0,11.72,1.85-1.07,0-11.72m-.94-4.09a2.46,2.46,0,0,0-1.15,2c0,.73.46,1,1.12.66a2.35,2.35,0,0,0,1.17-2c0-.76-.44-1.08-1.14-.68"/><path class="cls-13" d="M496.87,744.25c-1.81,1-3.1-.15-3.11-2.72,0-2.23.93-5.1,3.13-6.37s3.06.76,3.06,2.74c0,2.64-1.31,5.32-3.08,6.34m.05-10.71a10.78,10.78,0,0,0-5,9.15c0,3.7,2.14,4.8,4.91,3.21a10.79,10.79,0,0,0,5.06-9.16c0-3.58-2-4.89-4.93-3.2"/><path class="cls-13" d="M504.52,738.38a2.7,2.7,0,0,0-1.26,2.26c0,.87.51,1.23,1.22.82h0a2.67,2.67,0,0,0,1.26-2.26c0-.9-.51-1.23-1.24-.81"/><path class="cls-13" d="M512.77,724.42a11.21,11.21,0,0,0-5.46,9.38c0,3.59,2,4.85,5.09,3.08a11.89,11.89,0,0,0,2.93-2.4l-.32-1.42a9.51,9.51,0,0,1-2.28,1.9c-2,1.17-3.54.38-3.55-2.34a7.62,7.62,0,0,1,3.59-6.51,3.92,3.92,0,0,1,2.15-.68l.42-1.89a6,6,0,0,0-2.57.88"/><path class="cls-13" d="M521.61,730c-1.81,1-3.1-.15-3.11-2.72,0-2.23.93-5.1,3.13-6.37s3.06.76,3.06,2.74c0,2.64-1.32,5.32-3.08,6.34m.05-10.71a10.78,10.78,0,0,0-5,9.15c0,3.7,2.14,4.8,4.91,3.21a10.79,10.79,0,0,0,5.06-9.16c0-3.58-2-4.89-4.93-3.2"/><path class="cls-13" d="M540.13,708.6a6.68,6.68,0,0,0-2.25,2.13,9.92,9.92,0,0,0-1.13,2.18l0,0c-.44-1.13-1.5-1.49-2.89-.69a7.7,7.7,0,0,0-3.2,4l-.06,0-.09-1.84-1.62.94c.07.93.09,1.91.09,3.12l0,8.55,1.81-1,0-7.07a4.25,4.25,0,0,1,.14-1.13,5.72,5.72,0,0,1,2.29-3.46c1.41-.81,2.13.13,2.14,2l0,7,1.81-1,0-7.24a5.12,5.12,0,0,1,.14-1.15,5.43,5.43,0,0,1,2.19-3.2c1.49-.86,2.21.08,2.22,2.33l0,6.63,1.81-1,0-6.9c0-4.07-2-3.94-3.37-3.16"/></g></g></svg>