<svg id="Layer_1" data-name="Layer 1" xmlns="http://www.w3.org/2000/svg" xmlns:xlink="http://www.w3.org/1999/xlink" viewBox="0 0 735 852"><defs><style>.cls-1{fill:none;}.cls-2{fill:#009bd7;}.cls-3{fill:#005373;}.cls-4{fill:#007eb4;}.cls-5{opacity:0.94;}.cls-6{fill:#fff;}.cls-7{isolation:isolate;}.cls-8{clip-path:url(#clip-path);}</style><clipPath id="clip-path"><polygon class="cls-1" points="390.23 807.42 390.19 789.96 543.47 701.46 543.52 718.92 390.23 807.42"/></clipPath></defs><title>devtools</title><polygon class="cls-2" points="734.91 213.75 734.91 636.9 367.5 849.09 367.5 425.33 734.91 213.75"/><polygon class="cls-3" points="0.09 213.75 0.09 636.9 367.5 849.09 367.5 425.33 0.09 213.75"/><polygon class="cls-4" points="0.09 213.75 367.5 2.1 734.91 213.75 367.5 425.33 0.09 213.75"/><path d="M556.56,111v72.12L367.5,74,63.86,250V601L367.4,776.68,672,600.59V177.44Zm.69,424.15L367,645,176.64,535.71V315.05L367.5,205.71,557.28,315Z"/><g class="cls-5"><path class="cls-6" d="M149.84,361.33V463.18c0,8.89.34,18.49.68,24.36H132.07l-.84-13.69h-.34c-4.86,9.6-14.75,15.64-26.66,15.64-19.46,0-34.89-17.6-34.89-44.26-.16-29,16.94-46.22,36.56-46.22,11.24,0,19.29,5,23,11.38h.34V361.33Zm-20.62,75.72a32.27,32.27,0,0,0-.51-5.69c-1.84-8.53-8.38-15.46-17.77-15.46-13.25,0-20.63,12.44-20.63,28.62,0,15.82,7.38,27.37,20.46,27.37,8.38,0,15.76-6,17.78-15.46a25.93,25.93,0,0,0,.67-6.4Z"/><path class="cls-6" d="M188.75,450.38c.5,15.65,12.07,22.4,25.15,22.4,9.56,0,16.44-1.42,22.65-3.91l3,15.11a73.08,73.08,0,0,1-28.51,5.34c-26.49,0-42.09-17.25-42.09-43.73,0-24,13.75-46.58,39.91-46.58,26.5,0,35.22,23.11,35.22,42.13a56.34,56.34,0,0,1-.67,9.24Zm35.89-15.28c.17-8-3.19-21.16-16.94-21.16-12.75,0-18.11,12.27-18.95,21.16Z"/><path class="cls-6" d="M275.45,401l13.25,43.9c2.35,7.65,4,14.58,5.53,21.69h.51c1.51-7.11,3.35-13.86,5.53-21.69L313.19,401H335l-31.2,86.57H283.5L253.15,401Z"/><path class="cls-6" d="M377.08,376.79V401.5h21.13v11.91H377.08v46.4c0,10.66,2.85,16.71,11.07,16.71a31.17,31.17,0,0,0,8.55-1.07l.67,11.73c-2.85,1.25-7.38,2.14-13.08,2.14-6.88,0-12.41-2.32-15.93-6.58-4.2-4.62-5.71-12.27-5.71-22.4V413.41H350.08V401.5h12.57V380.88Z"/><path class="cls-6" d="M483.91,443.81c0,31.82-20.8,45.68-40.42,45.68-22,0-38.91-17.06-38.91-44.26,0-28.8,17.78-45.69,40.25-45.69C468.14,399.54,483.91,417.5,483.91,443.81Zm-64.4.89c0,18.84,10.23,33.06,24.65,33.06,14.09,0,24.65-14,24.65-33.42,0-14.58-6.87-33.06-24.32-33.06S419.51,428.34,419.51,444.7Z"/><path class="cls-6" d="M570.61,443.81c0,31.82-20.8,45.68-40.42,45.68-22,0-38.91-17.06-38.91-44.26,0-28.8,17.78-45.69,40.25-45.69C554.84,399.54,570.61,417.5,570.61,443.81Zm-64.4.89c0,18.84,10.23,33.06,24.65,33.06,14.09,0,24.65-14,24.65-33.42,0-14.58-6.87-33.06-24.31-33.06S506.21,428.34,506.21,444.7Z"/><path class="cls-6" d="M583.85,361.33h14.76V487.54H583.85Z"/><path class="cls-6" d="M616.05,471.54a37.18,37.18,0,0,0,19.46,6.22c10.73,0,15.76-5.69,15.76-12.8,0-7.46-4.19-11.55-15.09-15.82-14.59-5.51-21.47-14-21.47-24.35,0-13.87,10.57-25.25,28-25.25a38.63,38.63,0,0,1,19.95,5.34L659,416.25a30.37,30.37,0,0,0-16.61-5c-8.72,0-13.58,5.33-13.58,11.73,0,7.11,4.86,10.31,15.43,14.58,14.08,5.68,21.3,13.15,21.3,26,0,15.11-11.07,25.78-30.36,25.78-8.89,0-17.11-2.32-22.81-5.87Z"/></g><g class="cls-7"><g class="cls-8"><path class="cls-6" d="M405,786.88l-1.83,1.06-1.44,6.72c-.33,1.58-.6,3-.77,4.25l-.06,0a32.08,32.08,0,0,0-.92-3.3l-1.59-4.95-1.57.9-1.65,6.92c-.32,1.48-.66,2.93-.89,4.25l-.06,0c-.19-1.1-.47-2.16-.77-3.29l-1.36-5.18-1.9,1.09,3.1,10,1.7-1,1.62-6.52c.36-1.46.67-2.85.92-4.41l0,0a28.3,28.3,0,0,0,.92,3.33l1.57,4.69,1.69-1L405,786.88"/><path class="cls-6" d="M420.78,777.78l-1.84,1.06-1.43,6.72c-.33,1.57-.6,3-.77,4.25l-.06,0c-.24-1.05-.54-2.11-.92-3.29l-1.6-4.95-1.56.9L411,789.42c-.33,1.48-.66,2.92-.89,4.25l-.07,0a31.63,31.63,0,0,0-.77-3.28l-1.36-5.18-1.9,1.09,3.11,9.94,1.69-1,1.63-6.52c.36-1.46.66-2.85.92-4.41l0,0a30.38,30.38,0,0,0,.92,3.33l1.58,4.68,1.69-1,3.25-13.61"/><path class="cls-6" d="M436.55,768.67l-1.84,1.06-1.43,6.73c-.34,1.57-.61,3-.77,4.25l-.07,0c-.23-1-.53-2.12-.91-3.3l-1.6-5-1.56.91-1.65,6.91c-.33,1.48-.66,2.93-.89,4.25l-.07,0c-.19-1.1-.47-2.15-.77-3.29l-1.36-5.18-1.9,1.1,3.11,9.94,1.69-1,1.63-6.51c.35-1.46.67-2.86.91-4.41l0,0a30.38,30.38,0,0,0,.92,3.33l1.58,4.69,1.68-1,3.26-13.62"/><path class="cls-6" d="M438.43,776.54a2.72,2.72,0,0,0-1.26,2.25c0,.88.51,1.24,1.22.83l0,0a2.67,2.67,0,0,0,1.26-2.26c0-.89-.51-1.23-1.25-.8"/><path class="cls-6" d="M446.45,762.68a6.9,6.9,0,0,0-2.81,4.2l-.08,0-.07-2.26-1.63.93c.07,1.06.09,2.23.1,3.61l0,8.06,1.83-1.06V770a5.63,5.63,0,0,1,.08-1,5.83,5.83,0,0,1,2.48-4.18,4.14,4.14,0,0,1,.63-.29v-2a2.5,2.5,0,0,0-.53.23"/><path class="cls-6" d="M451.94,759.52a6.83,6.83,0,0,0-3.52,5.47c0,1.41.88,2.07,2.71,1.76,1.37-.2,1.9,0,1.91,1.06a3.53,3.53,0,0,1-2,2.89,4,4,0,0,1-2.45.56l-.46,1.89a5,5,0,0,0,2.87-.83,7,7,0,0,0,3.81-5.74c0-1.74-.91-2.24-2.69-2-1.33.18-1.94.09-1.94-.88a3.2,3.2,0,0,1,1.7-2.58,3.27,3.27,0,0,1,2.09-.52l.45-1.82a4.41,4.41,0,0,0-2.5.72"/><path class="cls-6" d="M459.41,752.66l-1.81,1.7v2.15l-1.58.92v1.62l1.58-.92,0,6.39c0,1.39.2,2.32.73,2.64s1.13.27,2-.23a7.3,7.3,0,0,0,1.64-1.26l-.08-1.55a5.77,5.77,0,0,1-1.08.76c-1,.6-1.39,0-1.39-1.48l0-6.31,2.65-1.54v-1.62l-2.66,1.54v-2.81"/><path class="cls-6" d="M472.7,747.8l-1.86,1.07,0,7.19a4.75,4.75,0,0,1-.17,1.19,6,6,0,0,1-2.44,3.35c-1.68,1-2.28-.19-2.29-2.42l0-6.48-1.85,1.06,0,6.86c0,4.11,1.93,4,3.53,3.1A8.38,8.38,0,0,0,471,758.6l0,0,.11,1.85,1.65-.95c-.07-.88-.09-1.94-.09-3.15l0-8.52"/><path class="cls-6" d="M480,753.89c-2,1.15-3-.22-3-2.6,0-2.59,1.13-5.18,3.05-6.29,1.39-.8,2.4-.27,2.68.93a3.31,3.31,0,0,1,.09.85v2a5.22,5.22,0,0,1-.08,1,6.2,6.2,0,0,1-2.71,4.11m4.62-18.43-1.86,1.08,0,7-.05,0c-.46-.68-1.52-.92-3.07,0-2.49,1.43-4.59,5.05-4.56,8.94,0,3.56,1.91,4.86,4.38,3.44a8.28,8.28,0,0,0,3.47-4.31l0,0,.09,2,1.67-1c-.07-.76-.09-1.93-.09-3l0-14.17"/><path class="cls-6" d="M489.52,738.09l-1.85,1.07,0,11.72,1.85-1.07,0-11.72m-.94-4.09a2.45,2.45,0,0,0-1.15,2c0,.72.46,1,1.12.66a2.36,2.36,0,0,0,1.17-2c0-.75-.44-1.08-1.14-.67"/><path class="cls-6" d="M496.87,744.25c-1.82,1-3.11-.15-3.11-2.71,0-2.23.93-5.1,3.13-6.37s3.05.76,3.06,2.74c0,2.64-1.32,5.32-3.08,6.34m.05-10.7a10.79,10.79,0,0,0-5,9.14c0,3.71,2.14,4.81,4.91,3.21a10.8,10.8,0,0,0,5.06-9.16c0-3.58-2-4.89-4.93-3.19"/><path class="cls-6" d="M504.52,738.38a2.69,2.69,0,0,0-1.26,2.26c0,.87.51,1.23,1.22.82h0a2.67,2.67,0,0,0,1.26-2.26c0-.89-.51-1.23-1.24-.81"/><path class="cls-6" d="M512.77,724.42a11.24,11.24,0,0,0-5.46,9.39c0,3.58,2,4.85,5.09,3.07a11.71,11.71,0,0,0,2.93-2.39l-.31-1.42a9.66,9.66,0,0,1-2.28,1.9c-2,1.16-3.54.37-3.55-2.34a7.6,7.6,0,0,1,3.59-6.51,4,4,0,0,1,2.15-.69l.42-1.89a6.06,6.06,0,0,0-2.58.88"/><path class="cls-6" d="M521.61,730c-1.81,1-3.1-.15-3.11-2.72,0-2.23.94-5.1,3.13-6.37s3.06.76,3.07,2.74c0,2.64-1.32,5.33-3.09,6.35m.06-10.71a10.77,10.77,0,0,0-5,9.15c0,3.7,2.14,4.8,4.9,3.2a10.75,10.75,0,0,0,5.06-9.16c0-3.58-2-4.88-4.92-3.19"/><path class="cls-6" d="M540.13,708.6a6.66,6.66,0,0,0-2.25,2.13,9.89,9.89,0,0,0-1.13,2.18l0,0c-.44-1.14-1.5-1.5-2.89-.69a7.69,7.69,0,0,0-3.2,4l-.06,0-.09-1.84-1.62.94c.06.93.09,1.91.09,3.12l0,8.55,1.82-1,0-7.06a4.37,4.37,0,0,1,.14-1.13,5.71,5.71,0,0,1,2.29-3.46c1.41-.82,2.13.13,2.14,2l0,7,1.81-1,0-7.25a5.23,5.23,0,0,1,.14-1.14,5.46,5.46,0,0,1,2.19-3.21c1.5-.86,2.22.08,2.22,2.34l0,6.63,1.82-1.05,0-6.9c0-4.07-2-3.93-3.37-3.15"/></g></g></svg>